# xmcd
#
# Track frame offsets:
#	150
#	12442
#	34222
#	50627
#	64857
#	85887
#	100732
#	127685
#	152080
#	168600
#	178822
#	201920
#	213947
#	256875
#	267497
#	285277
#	312510
#	331445
#
# Disc length: 4569
#
# Revision: 2
# Processed by: cddbd v1.5.1PL0 Copyright (c) Steve Scherf et al.
# Submitted via: CDex 1.51
# Normalized: r1:DSETVAR2,TDELIM( - )
#
DISCID=0511d712
DTITLE=Various Artist - Jazz Moods
DYEAR=1900
DGENRE=Jazz
TTITLE0=Nat KingCole - Let There Be Love
TTITLE1=Dave Brubeck - Take Five
TTITLE2=Stan Getz and Astrud Gilberto - Girl From Inpanema
TTITLE3=Buddy Greco - The Lady Is A Tramp
TTITLE4=Miles Davis - Miles
TTITLE5=Peggy Lee - Fever
TTITLE6=Lee Ritenour - 4 in 6
TTITLE7=Clarie Martin - Moon Ray
TTITLE8=Bill Taylor and The Billy Taylor Trio - I Wish I Knew (How It Would Feel To Be Free)
TTITLE9=Dinah Washington - Call Me Irresponsible
TTITLE10=Eart Klugh - The Shadow Of Your Smile
TTITLE11=Dinah Shore - It's All Right With Me
TTITLE12=Art Blakely and The Jazz Messengers - Moanin'
TTITLE13=Tony Bennett - On The Sunny Side Of The Street
TTITLE14=Spyro Gyra - Morning Dance
TTITLE15=George Benson - Summer Time
TTITLE16=US 3 and Rashaan - Cantaloop (Instrumental)
TTITLE17=Aretha Franklin - Love For Sale
EXTD=
EXTT0=
EXTT1=
EXTT2=
EXTT3=
EXTT4=
EXTT5=
EXTT6=
EXTT7=
EXTT8=
EXTT9=
EXTT10=
EXTT11=
EXTT12=
EXTT13=
EXTT14=
EXTT15=
EXTT16=
EXTT17=
PLAYORDER=
